<svg width="61" height="61" viewBox="0 0 61 61" fill="none" xmlns="http://www.w3.org/2000/svg">
<path d="M30.4825 0C13.647 0 0 13.6549 0 30.5C0 47.3451 13.647 61 30.4825 61C45.9676 61 58.9653 49.3856 60.776 34.1234C60.9711 32.4489 59.7792 30.8904 58.1057 30.6891C56.4353 30.4939 54.8746 31.6864 54.6795 33.3609C53.2316 45.5609 42.8706 54.9 30.4825 54.9C17.0153 54.9 6.0965 43.9749 6.0965 30.5C6.0965 17.0251 17.0153 6.1 30.4825 6.1C33.296 6.1 36.0821 6.60933 38.6762 7.53043C40.2613 8.09163 41.9226 7.21018 42.4865 5.62418C43.0474 4.03513 42.2609 2.27839 40.6758 1.71414C37.4325 0.564286 33.991 0 30.4825 0ZM57.9167 6.1C57.1364 6.1 56.3195 6.37452 55.725 6.95707L29.1473 33.1687C28.3639 33.9404 27.5744 33.791 26.9587 32.8821L23.9104 28.4016C22.9777 27.0261 21.0207 26.6265 19.6246 27.5446C18.2255 28.4626 17.8323 30.3628 18.765 31.7383L21.8133 36.2187C24.5598 40.2722 29.9338 40.809 33.4362 37.3625L60.1084 11.2484C61.2972 10.0772 61.2972 8.12827 60.1084 6.95707C59.514 6.37147 58.6971 6.1 57.9167 6.1Z" fill="#25E66C"/>
</svg>
