<svg width="10" height="10" viewBox="0 0 10 10" fill="none" xmlns="http://www.w3.org/2000/svg">
<path d="M5.00098 6.06464L1.27474 9.79087C1.13532 9.93029 0.957884 10 0.742421 10C0.526959 10 0.349519 9.93029 0.210102 9.79087C0.0706848 9.65146 0.000976562 9.47402 0.000976562 9.25856C0.000976562 9.04309 0.0706848 8.86565 0.210102 8.72624L3.93634 5L0.210102 1.27376C0.0706848 1.13435 0.000976562 0.956907 0.000976562 0.741445C0.000976562 0.525982 0.0706848 0.348542 0.210102 0.209125C0.349519 0.0697082 0.526959 0 0.742421 0C0.957884 0 1.13532 0.0697082 1.27474 0.209125L5.00098 3.93536L8.72721 0.209125C8.86663 0.0697082 9.04407 0 9.25953 0C9.47499 0 9.65243 0.0697082 9.79185 0.209125C9.93127 0.348542 10.001 0.525982 10.001 0.741445C10.001 0.956907 9.93127 1.13435 9.79185 1.27376L6.06561 5L9.79185 8.72624C9.93127 8.86565 10.001 9.04309 10.001 9.25856C10.001 9.47402 9.93127 9.65146 9.79185 9.79087C9.65243 9.93029 9.47499 10 9.25953 10C9.04407 10 8.86663 9.93029 8.72721 9.79087L5.00098 6.06464Z" fill="#A1A1AA"/>
</svg>
